<svg viewBox="0 0 843 85" fill="none" xmlns="http://www.w3.org/2000/svg">
<path d="M288 14H284L281 23L275 5L272 14H268" stroke="#1EB76F" stroke-width="2" stroke-linecap="round" stroke-linejoin="round"/>
<path d="M691 70H687L684 79L678 61L675 70H671" stroke="#1EB76F" stroke-width="2" stroke-linecap="round" stroke-linejoin="round"/>
<path d="M131.84 62.61C131.329 62.099 130.723 61.6936 130.055 61.4171C129.388 61.1405 128.673 60.9982 127.95 60.9982C127.228 60.9982 126.512 61.1405 125.845 61.4171C125.177 61.6936 124.571 62.099 124.06 62.61L123 63.67L121.94 62.61C120.908 61.5783 119.509 60.9987 118.05 60.9987C116.591 60.9987 115.192 61.5783 114.16 62.61C113.128 63.6417 112.549 65.041 112.549 66.5C112.549 67.959 113.128 69.3583 114.16 70.39L115.22 71.45L123 79.23L130.78 71.45L131.84 70.39C132.351 69.8792 132.756 69.2728 133.033 68.6053C133.31 67.9379 133.452 67.2225 133.452 66.5C133.452 65.7775 133.31 65.0621 133.033 64.3946C132.756 63.7272 132.351 63.1208 131.84 62.61Z" stroke="#1EB76F" stroke-width="2" stroke-linecap="round" stroke-linejoin="round"/>
<path d="M586.84 4.60999C586.329 4.099 585.723 3.69364 585.055 3.41708C584.388 3.14052 583.673 2.99817 582.95 2.99817C582.228 2.99817 581.512 3.14052 580.845 3.41708C580.177 3.69364 579.571 4.099 579.06 4.60999L578 5.66999L576.94 4.60999C575.908 3.5783 574.509 2.9987 573.05 2.9987C571.591 2.9987 570.192 3.5783 569.16 4.60999C568.128 5.64169 567.549 7.04096 567.549 8.49999C567.549 9.95903 568.128 11.3583 569.16 12.39L570.22 13.45L578 21.23L585.78 13.45L586.84 12.39C587.351 11.8792 587.756 11.2728 588.033 10.6053C588.31 9.93789 588.452 9.22248 588.452 8.49999C588.452 7.77751 588.31 7.0621 588.033 6.39464C587.756 5.72718 587.351 5.12075 586.84 4.60999Z" stroke="#1EB76F" stroke-width="2" stroke-linecap="round" stroke-linejoin="round"/>
<path d="M16 6H18C18.5304 6 19.0391 6.21071 19.4142 6.58579C19.7893 6.96086 20 7.46957 20 8V22C20 22.5304 19.7893 23.0391 19.4142 23.4142C19.0391 23.7893 18.5304 24 18 24H6C5.46957 24 4.96086 23.7893 4.58579 23.4142C4.21071 23.0391 4 22.5304 4 22V8C4 7.46957 4.21071 6.96086 4.58579 6.58579C4.96086 6.21071 5.46957 6 6 6H8" stroke="#1EB76F" stroke-width="2" stroke-linecap="round" stroke-linejoin="round"/>
<path d="M15 4H9C8.44772 4 8 4.44772 8 5V7C8 7.55228 8.44772 8 9 8H15C15.5523 8 16 7.55228 16 7V5C16 4.44772 15.5523 4 15 4Z" stroke="#1EB76F" stroke-width="2" stroke-linecap="round" stroke-linejoin="round"/>
<path d="M835 6H837C837.53 6 838.039 6.21071 838.414 6.58579C838.789 6.96086 839 7.46957 839 8V22C839 22.5304 838.789 23.0391 838.414 23.4142C838.039 23.7893 837.53 24 837 24H825C824.47 24 823.961 23.7893 823.586 23.4142C823.211 23.0391 823 22.5304 823 22V8C823 7.46957 823.211 6.96086 823.586 6.58579C823.961 6.21071 824.47 6 825 6H827" stroke="#1EB76F" stroke-width="2" stroke-linecap="round" stroke-linejoin="round"/>
<path d="M834 4H828C827.448 4 827 4.44772 827 5V7C827 7.55228 827.448 8 828 8H834C834.552 8 835 7.55228 835 7V5C835 4.44772 834.552 4 834 4Z" stroke="#1EB76F" stroke-width="2" stroke-linecap="round" stroke-linejoin="round"/>
<path d="M418 65H420C420.53 65 421.039 65.2107 421.414 65.5858C421.789 65.9609 422 66.4696 422 67V81C422 81.5304 421.789 82.0391 421.414 82.4142C421.039 82.7893 420.53 83 420 83H408C407.47 83 406.961 82.7893 406.586 82.4142C406.211 82.0391 406 81.5304 406 81V67C406 66.4696 406.211 65.9609 406.586 65.5858C406.961 65.2107 407.47 65 408 65H410" stroke="#1EB76F" stroke-width="2" stroke-linecap="round" stroke-linejoin="round"/>
<path d="M417 63H411C410.448 63 410 63.4477 410 64V66C410 66.5523 410.448 67 411 67H417C417.552 67 418 66.5523 418 66V64C418 63.4477 417.552 63 417 63Z" stroke="#1EB76F" stroke-width="2" stroke-linecap="round" stroke-linejoin="round"/>
</svg>
